<?xml version="1.0" encoding="utf-8"?>
<!-- Generator: Adobe Illustrator 26.0.1, SVG Export Plug-In . SVG Version: 6.00 Build 0)  -->
<svg version="1.1" id="Layer_1" xmlns="http://www.w3.org/2000/svg" xmlns:xlink="http://www.w3.org/1999/xlink" x="0px" y="0px"
	 viewBox="0 0 512 512" style="enable-background:new 0 0 512 512;" xml:space="preserve">
<style type="text/css">
	.st0{fill:#9CE5E1;}
	.st1{fill:#EA96A2;}
</style>
<rect class="st0" width="512" height="512"/>
<g>
	<path class="st1" d="M302,416h-40.8l-40.6-0.2c-9.6,0-16.3-0.6-20.1-1.8c-7-2.5-10.5-7.7-10.5-15.6c0-13.8,10.7-20.7,32.2-20.7
		l9.8,0.2l8.4,0.4c0-6.6-0.6-16.3-1.7-29.1c-1.2-12.8-1.7-22.5-1.7-28.9c0-17.4,1.6-43.7,4.7-79.2c3-34.9,4.4-61.3,4.3-79.4
		C227.7,175.9,216,183,211,183c-5.5,0-10.2-2.1-14.3-6.2c-4-4.1-6-8.8-6-14.2c0-6.4,5.9-14.2,17.6-23.4c7.4-5.2,17.8-13.5,31.4-25
		c12-12.2,23.5-18.3,34.5-18.3c9.2,0,13.7,5.3,13.7,15.8c0,3.1-0.4,7.8-1.2,14c-0.8,6.2-1.2,10.9-1.2,14c0,4.5,0.2,11.3,0.7,20.5
		c0.5,9.2,0.7,16,0.7,20.5c0,15.6-1.6,38.8-4.9,69.7c-3.3,30.9-4.9,54.1-4.9,69.5c0,7.9,0.5,17.6,1.6,28.9
		c1.1,11.3,1.7,20.6,1.8,27.9l21.5-0.4c5.7,0,10.5,1.9,14.3,5.6c3.8,3.8,5.6,8.4,5.6,14c0,5.7-1.9,10.5-5.6,14.2
		C312.5,414.1,307.8,416,302,416z"/>
</g>
</svg>
