<?xml version="1.0" encoding="utf-8"?>
<!-- Generator: Adobe Illustrator 26.0.1, SVG Export Plug-In . SVG Version: 6.00 Build 0)  -->
<svg version="1.1" id="Layer_1" xmlns="http://www.w3.org/2000/svg" xmlns:xlink="http://www.w3.org/1999/xlink" x="0px" y="0px"
	 viewBox="0 0 512 512" style="enable-background:new 0 0 512 512;" xml:space="preserve">
<style type="text/css">
	.st0{fill:#9CE5E1;}
	.st1{fill:#7A1AD6;}
</style>
<rect class="st0" width="512" height="512"/>
<g>
	<path class="st1" d="M361,136.4l-18.7,21.7c-17.8,20.8-34.1,45.9-49,75.5L256,315.5c-2.6,6-8.3,21.8-17.2,47.4
		c-7.1,20.2-13.7,35.3-19.9,45.3c-3.8,6.4-9.3,9.6-16.4,9.6c-5.5,0-10.3-1.9-14.5-5.7c-4.2-3.8-6.3-8.4-6.3-13.7
		c0-5.2,4.4-18.5,13.1-40l46.1-113c20.4-44.7,41.3-79.2,62.8-103.4l3.9-4.3l-102.9-2.1l-46.1-1.2c-13.3-1.2-19.9-7.8-19.9-19.7
		c0-5.7,1.9-10.5,5.7-14.2c3.8-3.7,8.6-5.5,14.4-5.5c17.2,0,43.1,0.5,77.6,1.6c34.5,1.1,60.4,1.6,77.6,1.6h37.5
		c14.5,0,21.7,4.3,21.7,12.9C373.3,117.7,369.2,126.1,361,136.4z"/>
</g>
</svg>
