<?xml version="1.0" encoding="utf-8"?>
<!-- Generator: Adobe Illustrator 26.0.1, SVG Export Plug-In . SVG Version: 6.00 Build 0)  -->
<svg version="1.1" id="Layer_1" xmlns="http://www.w3.org/2000/svg" xmlns:xlink="http://www.w3.org/1999/xlink" x="0px" y="0px"
	 viewBox="0 0 512 512" style="enable-background:new 0 0 512 512;" xml:space="preserve">
<style type="text/css">
	.st0{fill:#9CE5E1;}
	.st1{fill:#EEF47F;}
</style>
<rect class="st0" width="512" height="512"/>
<g>
	<path class="st1" d="M254,417.3c-20.6,0-39.2-4.3-55.6-12.9c-18.5-10-30.9-24-37.3-42c-0.8-2.5-1.2-4.9-1.2-7.2
		c0-5.5,2.1-10,6.3-13.6c4.2-3.6,9-5.4,14.5-5.4c5.5,0,10.2,2.5,14.2,7.6l9.4,14.2c4.9,6.7,11.6,11.7,19.9,15.1
		c8.3,3.4,18.3,5,29.9,5c14.9,0,28-4.6,39.2-13.9c11.9-9.8,17.8-21.9,17.8-36.1c0-20.6-7.6-37.1-22.8-49.4
		c-13.4-10.7-31.2-17.2-53.3-19.5c-15.2-1.5-22.8-7.7-22.8-18.5c0-8.1,5.9-14.2,17.8-18.5l49-12.1c9.4-3.4,16.5-8,21.3-13.8
		c4.8-5.8,7.2-12.9,7.4-21.2c0.3-12-4.4-21.7-13.9-29.1c-10-7.7-24-11.5-42-11.5c-9.3,0-18.3,2.3-27.1,6.8l-23.2,14.6
		c-4.5,2.9-8.1,4.3-10.9,4.3c-5.5,0-10.2-2.1-14-6.3c-3.9-4.2-5.8-8.9-5.8-14.3c0-10.8,10.5-21.2,31.4-31.2
		c18.2-8.9,33.2-13.3,44.9-13.3c29.4,0,52.7,6.5,69.9,19.5c18.5,13.9,27.7,33.8,27.7,59.7c0,32.1-13,53.3-39,63.6
		c-2.3,1-5,1.9-8,2.9c18.2,6.7,31.8,16.7,40.8,30s13.5,30,13.5,49.9c0,26.9-9.5,49.8-28.5,68.6C304.5,407.9,281.3,417.3,254,417.3z"
		/>
</g>
</svg>
