<?xml version="1.0" encoding="utf-8"?>
<!-- Generator: Adobe Illustrator 26.0.1, SVG Export Plug-In . SVG Version: 6.00 Build 0)  -->
<svg version="1.1" id="Layer_1" xmlns="http://www.w3.org/2000/svg" xmlns:xlink="http://www.w3.org/1999/xlink" x="0px" y="0px"
	 viewBox="0 0 512 512" style="enable-background:new 0 0 512 512;" xml:space="preserve">
<style type="text/css">
	.st0{fill:#9CE5E1;}
	.st1{fill:#F29866;}
</style>
<rect class="st0" width="512" height="512"/>
<g>
	<path class="st1" d="M332.7,413.2c-3.4,0-8.2-1.1-14.5-3.2c-6.2-2.1-11-3.2-14.3-3.2c-7,0-17.4,0.4-31.4,1.2s-24.5,1.2-31.6,1.2
		c-5.3,0-13.2,0.7-23.7,2.1c-10.5,1.4-18.4,2.1-23.7,2.1c-1.5,0-3.7-0.3-6.6-0.8s-5.1-0.8-6.6-0.8c-9.4,0-15.6-4.6-18.5-13.7
		c-1.6-4.8-2.5-13-2.5-24.6c0-31.9,8.7-57.5,26-76.9c7.9-8.9,29.3-25.3,64.2-49.2c19.5-13.4,32.6-23.9,39.2-31.4
		c11.8-13.1,17.6-28.5,17.6-46.1c0-8.7-5.7-16.5-17-23.4c-10-6.2-19.8-9.2-29.3-9.2c-12.6,0-24.5,3.6-35.9,10.9l-29.3,23
		c-5.9,4.6-10.6,7-14.2,7c-14.1,0-21.1-5.6-21.1-16.8c0-6.4,2.6-12,7.8-16.6c16-15,29.9-25.9,41.6-32.6
		c16.5-9.4,33.6-14.2,51.1-14.2c22.1,0,41.9,6,59.3,18c19.4,13.5,29.1,30.9,29.1,52.1c0,13.9-2,26.8-5.9,38.6
		c-4,11.8-10,22.5-18,32.2c-10.3,12.3-27.6,26-52.1,41.2c-25.7,16.1-42.6,28.4-50.7,36.7c-15.2,15.7-22.6,34.8-22.4,57.2l42.2-3.9
		c29-1.6,49.7-2.5,62.1-2.5c10.4,0,20.2,1.8,29.5,5.3c12.3,4.8,18.5,11.4,18.5,19.9c0,5.3-1.8,10.1-5.5,14.3
		C342.7,411.1,338.2,413.2,332.7,413.2z"/>
</g>
</svg>
