<?xml version="1.0" encoding="utf-8"?>
<!-- Generator: Adobe Illustrator 26.0.1, SVG Export Plug-In . SVG Version: 6.00 Build 0)  -->
<svg version="1.1" id="Layer_1" xmlns="http://www.w3.org/2000/svg" xmlns:xlink="http://www.w3.org/1999/xlink" x="0px" y="0px"
	 viewBox="0 0 512 512" style="enable-background:new 0 0 512 512;" xml:space="preserve">
<style type="text/css">
	.st0{fill:#9CE5E1;}
	.st1{fill:#3BACEA;}
</style>
<rect class="st0" width="512" height="512"/>
<g>
	<path class="st1" d="M240.5,421.1c-38.8,0-67.4-14.4-85.7-43.1c-2.5-4-3.7-7.8-3.7-11.5c0-5.3,2.1-9.9,6.4-13.8
		c4.2-3.9,9-5.8,14.4-5.8c5.6,0,10.9,3,16,9c7.2,8.8,12.7,14.4,16.4,16.8c8.9,6,21,9,36.3,9c23.7,0,43.3-9,58.9-27.1
		c14.9-17.2,22.4-37.9,22.4-62.1c0-20-3.3-36.2-9.8-48.6c-8.5-15.7-21.5-23.6-39.2-23.6c-14.6,0-26.6,2-35.9,5.9
		c-7.4,3.1-14.8,8.5-22.4,16.2l-22.4,24.4c-6,6.2-12.2,9.2-18.5,9.2c-5.5,0-10.1-1.9-13.9-5.8c-3.8-3.9-5.7-8.6-5.7-14
		c0-2.7,1.1-14.9,3.3-36.5c4.6-43.1,7-71.4,7-84.9c0-4.8-1.2-10-3.6-15.7c-2.4-5.7-3.6-9.9-3.6-12.6c0-8.3,7.2-12.5,21.5-12.5
		c2.7,0,6.9,0.2,12.4,0.7c5.5,0.5,9.7,0.7,12.4,0.7c7.9,0,19.8-0.3,35.7-0.8c15.9-0.5,27.8-0.8,35.7-0.8c3.7,0,9.3,0.1,16.8,0.4
		c7.5,0.3,13.1,0.4,16.8,0.4c2.6,0,6.4-0.5,11.3-1.5s8.6-1.5,11.1-1.5c5.3,0,10,2,14.2,5.9c4.1,4,6.2,8.5,6.2,13.7
		c0,15.3-16.2,23-48.6,23c-4.2,0-9.6-0.1-16-0.4c-6.4-0.3-10.3-0.4-11.7-0.4l-34.7,0.6l-34.7,1c0,6.2-2.5,28.9-7.6,68.3
		c18.7-14.9,43.7-22.4,74.9-22.4c30.1,0,53,11.8,68.9,35.3c13.4,20,20.1,45.4,20.1,76.3c0,36.9-10.8,67.3-32.4,91.3
		C306.9,408.6,277.3,421.1,240.5,421.1z"/>
</g>
</svg>
