<?xml version="1.0" encoding="utf-8"?>
<!-- Generator: Adobe Illustrator 26.0.1, SVG Export Plug-In . SVG Version: 6.00 Build 0)  -->
<svg version="1.1" id="Layer_1" xmlns="http://www.w3.org/2000/svg" xmlns:xlink="http://www.w3.org/1999/xlink" x="0px" y="0px"
	 viewBox="0 0 512 512" style="enable-background:new 0 0 512 512;" xml:space="preserve">
<style type="text/css">
	.st0{fill:#9CE5E1;}
	.st1{fill:#2731E2;}
</style>
<rect class="st0" width="512" height="512"/>
<g>
	<path class="st1" d="M253.5,422.6c-35.7,0-61.9-13.1-78.8-39.2c-13.9-21.5-20.9-50.1-20.9-85.9c0-67.5,27.4-126.1,82.2-175.8
		l19.3-19.5c9.4-9,16.5-13.5,21.3-13.5c5.5,0,10.3,1.9,14.4,5.8s6.2,8.5,6.4,13.8c0.3,4.9-6.7,14.4-20.9,28.5l-41.8,40.8
		c-11.1,11.2-20.6,28.2-28.5,50.9c11.9-5.5,22.3-9.5,31.2-12.2c8.9-2.7,16.2-4,21.9-4c32,0,56.5,8.5,73.6,25.6
		c17.1,17.1,25.6,41.2,25.6,72.4c0,32.7-9.2,59.3-27.7,80C311.6,411.9,285.8,422.6,253.5,422.6z M253.5,254.2
		c-11.8,0-22.3,2.1-31.6,6.2c-3.6,1.6-12.5,6.9-26.9,15.8c-0.8,7.2-1.2,14.4-1.2,21.3c0,24.5,4.1,44.4,12.3,59.9
		c10.4,19.7,26.6,29.5,48.6,29.5c20.6,0,36.6-7.4,48-22.1c10.5-13.7,15.8-31.8,15.8-54.3c0-18.7-5.4-32.8-16.2-42.1
		C291.5,258.9,275.3,254.2,253.5,254.2z"/>
</g>
</svg>
