<?xml version="1.0" encoding="utf-8"?>
<!-- Generator: Adobe Illustrator 26.0.1, SVG Export Plug-In . SVG Version: 6.00 Build 0)  -->
<svg version="1.1" id="Layer_1" xmlns="http://www.w3.org/2000/svg" xmlns:xlink="http://www.w3.org/1999/xlink" x="0px" y="0px"
	 viewBox="0 0 512 512" style="enable-background:new 0 0 512 512;" xml:space="preserve">
<style type="text/css">
	.st0{fill:#9CE5E1;}
	.st1{fill:#82EF3C;}
</style>
<rect class="st0" width="512" height="512"/>
<g>
	<path class="st1" d="M327,323.2v75.9c0,12.7-6.2,19.1-18.7,19.1c-14.5,0-21.7-9.9-21.7-29.7c0-2.5,0.1-5.9,0.4-10.5
		c0.3-4.5,0.4-7.6,0.4-9.2l-0.2-46.6l-90.4-2.3c-18.7,0-31.7-0.6-39-1.8c-12.4-2.1-18.7-6.9-18.7-14.6c0-6.2,3.8-13.9,11.3-23.4
		l17.6-20.9L269,112c9.2-12.7,20.8-19.1,34.9-19.1c15.4,0,23.2,6.7,23.2,20.1v170.4c2.3-0.1,5.1-0.2,8.4-0.2
		c25.2,0,37.7,6.8,37.7,20.3c0,9.8-5.2,16.1-15.6,18.7C353,323.4,342.8,323.8,327,323.2z M287.3,149.7
		c-36.5,58.2-65,101.9-85.5,130.8l85.5,2.1V149.7z"/>
</g>
</svg>
