<?xml version="1.0" encoding="utf-8"?>
<!-- Generator: Adobe Illustrator 26.0.1, SVG Export Plug-In . SVG Version: 6.00 Build 0)  -->
<svg version="1.1" id="Layer_1" xmlns="http://www.w3.org/2000/svg" xmlns:xlink="http://www.w3.org/1999/xlink" x="0px" y="0px"
	 viewBox="0 0 512 512" style="enable-background:new 0 0 512 512;" xml:space="preserve">
<style type="text/css">
	.st0{fill:#D80E6A;}
	.st1{fill:#212121;}
</style>
<rect class="st0" width="512" height="512"/>
<g>
	<path class="st1" d="M90,209.9c0-8.9,3.1-16.9,9.4-23.9c6.3-7,13.8-10.5,22.5-10.5c5.8,0,38.5,11.7,98.1,35.1
		c-1.9-33.6-2.9-56.7-2.9-69.5c0-9.4,3.1-17.1,9.2-23.2c6.2-6,13.8-9.1,23-9.1c9.4,0,17.2,3,23.4,9.1c6.2,6,9.2,13.8,9.2,23.2
		c0,13.3,0.7,33.7,2.2,61.2c57.9-8.7,93.4-13,106.5-13c8.9,0,16.4,3.2,22.3,9.6c5.9,6.4,8.9,14.2,8.9,23.4
		c0,16.9-9.1,27.3-27.2,31.1c-16.9,3.6-46.7,8-89.5,13c14,12.8,29.2,29.2,45.6,49.3c21.5,26.6,32.2,45,32.2,55.4
		c0,8.7-3.4,16.2-10.1,22.6c-6.8,6.4-14.5,9.6-23.2,9.6c-9.2,0-17.5-4.3-25-13c-14.7-19.8-38.8-48.2-72.1-85.1
		c-49.7,56.3-83.4,84.4-101,84.4c-8.7,0-16.4-3.4-23-10.1c-6.6-6.8-10-14.5-10-23.2c0-8.2,3.9-16.2,11.6-23.9
		c15.4-13,37.9-33.9,67.4-62.7c-19.8-6.3-48.8-16.8-86.9-31.5C96.9,232.1,90,222.7,90,209.9z"/>
</g>
</svg>
